<?xml version="1.0" standalone="no"?>
<!DOCTYPE svg PUBLIC "-//W3C//DTD SVG 20010904//EN"
 "http://www.w3.org/TR/2001/REC-SVG-20010904/DTD/svg10.dtd">
<svg version="1.0" xmlns="http://www.w3.org/2000/svg"
 width="558.000000pt" height="800.000000pt" viewBox="0 0 558.000000 800.000000"
 preserveAspectRatio="xMidYMid meet">

<g transform="translate(0.000000,800.000000) scale(0.100000,-0.100000)"
fill="#000000" stroke="none">
<path d="M2417 7166 c-19 -13 -47 -23 -62 -23 -15 0 -32 -8 -37 -16 -8 -15
-11 -14 -28 3 -22 22 -60 29 -42 8 12 -15 -16 -57 -33 -51 -6 1 -16 -1 -24 -6
-10 -6 -11 -13 -2 -29 6 -12 7 -23 2 -26 -5 -3 -11 3 -14 14 -5 19 -37 29 -37
12 0 -14 -80 -46 -114 -46 -25 0 -35 -6 -44 -25 -15 -31 -15 -51 -1 -51 6 0 8
9 4 20 -5 14 -2 20 10 20 9 0 13 -4 10 -10 -3 -5 -1 -10 5 -10 20 0 -7 -36
-29 -37 -17 -1 -21 4 -21 28 0 35 -12 37 -33 7 -8 -13 -18 -20 -22 -16 -4 4
-2 16 6 25 7 10 1 7 -15 -7 -22 -20 -24 -26 -12 -28 12 -3 5 -11 -21 -29 -21
-14 -44 -34 -51 -44 -7 -10 -19 -16 -27 -13 -9 4 -15 0 -15 -9 0 -8 6 -18 13
-20 6 -3 2 -6 -10 -6 -13 -1 -23 5 -23 12 0 6 -13 -1 -27 -18 -15 -16 -32 -29
-38 -27 -7 1 -19 -6 -26 -15 -13 -16 -12 -17 4 -4 9 8 21 11 25 7 4 -4 -1 -13
-11 -20 -21 -16 -22 -26 -2 -26 7 0 19 8 25 18 8 11 10 12 7 2 -2 -8 -13 -19
-25 -25 -12 -5 -25 -17 -27 -26 -6 -18 -35 -35 -35 -21 0 5 9 18 20 30 26 27
4 30 -24 3 -12 -11 -28 -21 -36 -23 -8 -2 -21 -11 -28 -20 -7 -10 -22 -18 -33
-18 -10 0 -19 -4 -19 -9 0 -5 -5 -22 -12 -38 -6 -15 -10 -33 -9 -40 1 -6 -7
-14 -17 -17 -26 -9 -60 -46 -42 -46 7 0 21 7 30 15 15 14 80 28 80 18 0 -20
-35 -64 -55 -69 -14 -3 -25 -10 -25 -16 0 -15 43 2 69 28 13 13 30 24 39 24
11 0 12 3 2 15 -13 15 -5 55 11 55 5 0 12 -6 15 -14 7 -18 54 -8 54 11 0 11
-7 14 -22 9 -19 -4 -17 -1 10 20 38 30 40 41 10 47 -18 3 -16 5 7 5 17 1 37
-3 45 -8 13 -8 12 -10 -5 -10 -15 0 -16 -3 -7 -12 10 -10 17 -10 32 0 10 6 26
9 35 6 10 -4 22 1 31 15 13 17 25 21 74 21 32 0 62 4 65 10 4 6 -11 8 -40 6
-37 -4 -48 -1 -58 15 -6 10 -21 19 -32 19 -17 0 -17 2 -5 10 13 8 11 11 -7 16
-13 4 -20 10 -17 16 4 5 10 5 17 0 20 -16 60 -26 53 -13 -4 6 -5 11 -1 11 3 0
10 -11 15 -25 7 -17 17 -25 34 -25 14 0 35 -4 48 -9 54 -19 78 -22 78 -7 0 8
-8 22 -17 32 -27 27 -25 44 7 44 16 0 36 -3 44 -6 14 -6 14 -9 -4 -24 -15 -13
-17 -19 -8 -22 11 -4 11 -8 0 -20 -14 -17 -5 -29 32 -42 17 -6 17 -5 5 11 -12
15 -12 16 4 10 9 -3 17 -2 17 2 0 5 -7 11 -15 15 -8 3 -15 11 -15 18 0 8 3 9
11 1 12 -12 59 -5 59 9 0 5 -9 6 -20 3 -25 -8 -27 13 -2 23 13 5 11 8 -13 13
l-30 7 35 1 c27 1 31 4 20 11 -13 9 -13 10 0 10 8 -1 24 -7 34 -15 25 -19 73
-19 92 -1 8 8 14 17 14 20 0 9 -28 7 -32 -3 -1 -4 -12 -11 -24 -15 -17 -5 -20
-2 -19 16 1 12 9 22 18 24 58 8 99 12 85 8 -10 -3 -18 -10 -18 -15 0 -17 41
-50 71 -56 16 -3 32 -10 36 -16 6 -10 -23 -5 -64 10 -16 6 -16 5 -4 -10 12
-15 11 -16 -19 -6 -23 9 -28 14 -18 20 20 13 -18 12 -43 -1 -13 -7 -31 -8 -54
-1 -33 9 -49 -1 -22 -13 10 -5 10 -7 0 -12 -19 -8 -16 -24 5 -24 14 0 15 -2 2
-10 -9 -6 -11 -10 -3 -10 7 0 10 -7 7 -15 -4 -8 -2 -15 4 -15 5 0 12 7 16 15
8 21 84 9 109 -16 10 -11 21 -19 24 -19 4 0 -4 11 -17 25 -20 21 -21 25 -6 25
9 0 19 -7 23 -15 5 -14 8 -14 24 1 18 16 59 15 107 -3 15 -6 15 -5 3 10 -12
15 -11 17 3 17 9 0 16 5 16 10 0 6 9 10 20 10 24 0 25 6 5 26 -19 20 -19 33 0
41 22 8 33 -6 15 -18 -12 -7 -11 -10 8 -15 17 -5 20 -10 12 -19 -8 -10 -4 -20
17 -39 15 -14 24 -26 20 -26 -4 0 -17 9 -29 20 -12 11 -25 20 -30 20 -6 0 -5
-30 2 -50 2 -3 2 -8 1 -12 0 -5 6 -8 14 -8 8 0 15 -4 15 -8 0 -5 -13 -9 -29
-9 -15 0 -28 5 -28 11 0 6 -1 20 -2 31 -1 18 -2 19 -12 3 -12 -22 -28 -23 -65
-3 -37 19 -58 19 -50 0 3 -8 0 -18 -7 -22 -7 -5 -12 -16 -13 -25 -3 -63 -4
-68 -24 -68 -11 0 -20 7 -20 15 0 8 -5 15 -10 15 -6 0 -9 -6 -8 -12 2 -7 -7
-14 -19 -16 -13 -2 -23 1 -23 7 0 6 7 11 15 11 8 0 15 5 15 10 0 6 -4 10 -9
10 -6 0 -13 -4 -16 -10 -10 -17 -34 -11 -46 11 -10 19 -9 20 13 14 16 -5 20
-4 13 3 -5 6 -27 14 -47 17 -31 6 -38 4 -38 -9 0 -9 6 -13 14 -10 8 3 16 -4
20 -20 3 -13 15 -27 25 -31 25 -8 23 -42 -2 -49 -26 -6 -12 -26 19 -26 14 0
23 -4 20 -8 -3 -5 4 -8 14 -8 11 1 19 -3 19 -9 0 -14 63 -26 76 -15 6 5 21 7
33 3 14 -3 22 -1 22 7 0 6 8 9 18 7 63 -18 72 -18 65 0 -6 15 -4 16 8 6 21
-17 84 -19 103 -4 28 24 18 32 -31 25 -41 -6 -45 -5 -40 10 4 10 1 19 -8 22
-18 7 -10 24 12 24 8 0 17 -9 20 -20 3 -11 9 -17 14 -14 5 3 7 10 4 15 -7 10
4 12 55 9 19 -1 40 -6 45 -12 7 -7 1 -9 -20 -5 -16 4 -24 4 -17 1 6 -3 12 -13
12 -21 0 -15 2 -15 18 0 11 10 27 13 45 10 16 -3 27 -1 27 6 0 5 -6 8 -14 5
-8 -3 -23 4 -33 15 -12 14 -29 21 -54 21 -47 0 -139 21 -139 31 0 11 40 32 48
25 3 -3 0 -6 -6 -6 -6 0 -9 -7 -5 -16 3 -9 13 -14 24 -11 10 3 20 0 21 -5 2
-5 19 -8 38 -6 l35 4 -35 12 -35 12 35 -6 c89 -15 125 -4 117 36 -1 8 5 23 14
33 14 16 19 16 59 2 23 -8 44 -15 46 -15 1 0 0 15 -3 33 -4 24 0 37 13 47 16
13 17 13 12 -2 -4 -10 -1 -19 8 -22 12 -4 14 -1 9 14 -7 22 10 28 18 8 4 -10
8 -9 16 2 8 11 10 7 5 -20 l-5 -35 23 36 c13 20 29 34 36 32 7 -3 12 4 12 16
0 12 6 21 14 21 9 0 12 -8 9 -25 -3 -13 -10 -23 -16 -22 -6 1 -13 -7 -15 -17
-3 -14 0 -17 11 -13 9 3 18 -1 21 -9 6 -15 4 -16 -49 -30 l-30 -8 33 -4 c26
-3 32 -7 27 -21 -7 -22 33 -37 50 -20 7 7 5 9 -5 7 -11 -2 -15 6 -15 32 0 33
2 35 32 35 17 0 35 3 39 8 13 13 44 7 44 -9 0 -9 -5 -12 -12 -8 -10 5 -10 3 0
-7 10 -11 14 -11 21 -1 10 17 34 11 43 -10 8 -20 30 -25 23 -5 -7 19 57 44 91
35 16 -5 39 -6 52 -3 15 4 22 1 22 -10 0 -8 7 -15 17 -15 20 0 113 -58 113
-71 0 -5 14 -9 30 -9 33 0 43 25 13 33 -15 4 -14 5 2 6 12 0 26 -4 33 -11 9
-9 12 -9 12 0 0 7 4 12 9 12 5 0 7 -9 4 -20 -3 -11 0 -20 6 -20 6 0 11 7 11
15 0 8 5 15 10 15 6 0 10 -7 10 -15 0 -8 5 -15 10 -15 6 0 10 7 10 15 0 26 44
7 94 -41 43 -41 66 -54 66 -36 0 14 -15 27 -52 46 -21 12 -34 25 -31 33 3 7
-1 13 -8 13 -21 1 -61 38 -54 50 4 6 3 10 -2 9 -24 -4 -25 3 -3 16 14 8 20 14
13 15 -7 0 -19 12 -27 27 -10 20 -22 27 -42 28 -21 0 -29 5 -28 18 1 9 -3 17
-8 17 -6 0 -8 6 -5 14 4 10 -2 16 -16 18 -15 2 -21 9 -19 21 3 15 -8 22 -30
18 -4 0 -12 8 -17 18 -6 10 -22 21 -35 25 -14 3 -27 15 -31 25 -5 16 -25 31
-45 35 -31 6 -150 53 -150 59 0 28 -91 77 -143 77 -19 0 -37 3 -41 8 -7 7 -12
8 -39 11 -7 0 -23 10 -34 20 -12 11 -24 17 -27 14 -3 -4 -20 4 -37 16 -21 16
-38 21 -56 16 -16 -4 -22 -2 -18 5 9 14 -28 13 -43 -2 -10 -10 -15 -10 -21 1
-6 10 -19 12 -45 7 -25 -5 -36 -3 -36 5 0 7 -3 10 -6 6 -3 -3 -17 -1 -31 4
-16 6 -30 6 -37 0 -20 -17 -97 -17 -110 0 -20 27 -44 29 -79 5z m-117 -131
c-7 -8 -17 -15 -23 -15 -5 0 -2 9 8 20 21 23 35 19 15 -5z m-46 -16 c-8 -14
-24 -10 -24 6 0 9 6 12 15 9 8 -4 12 -10 9 -15z m182 1 c8 0 14 -4 14 -10 0
-5 -11 -10 -25 -10 -14 0 -25 4 -25 9 0 5 -8 12 -17 14 -10 2 -5 3 11 1 16 -2
35 -4 42 -4z m-306 -10 c-20 -13 -33 -13 -25 0 3 6 14 10 23 10 15 0 15 -2 2
-10z m97 -15 c9 -25 -4 -29 -17 -6 -7 15 -7 21 0 21 6 0 13 -7 17 -15z m-157
-16 c-23 -19 -23 -20 -3 -14 12 3 24 1 28 -5 3 -5 1 -10 -4 -10 -6 0 -11 -8
-11 -17 -1 -17 -1 -17 -11 0 -5 9 -17 17 -24 17 -25 0 -16 26 13 37 39 16 40
15 12 -8z m720 -19 c0 -5 -5 -10 -11 -10 -5 0 -7 5 -4 10 3 6 8 10 11 10 2 0
4 -4 4 -10z m-330 -9 c0 -6 -4 -13 -10 -16 -5 -3 -10 1 -10 9 0 9 5 16 10 16
6 0 10 -4 10 -9z m-232 -19 c12 -1 22 -6 22 -11 0 -6 -16 -7 -36 -4 -27 4 -42
1 -66 -17 l-31 -23 18 30 c17 29 20 30 93 25z m-132 -30 c-18 -16 -18 -16 -6
6 6 13 14 21 18 18 3 -4 -2 -14 -12 -24z m554 8 c0 -5 -4 -10 -10 -10 -5 0
-10 5 -10 10 0 6 5 10 10 10 6 0 10 -4 10 -10z m-636 -19 c3 -5 -1 -11 -9 -15
-8 -3 -15 -12 -15 -20 0 -8 -15 -19 -32 -25 -59 -21 -88 -36 -88 -46 0 -5 -4
-4 -9 4 -7 11 2 20 41 38 27 13 56 23 64 23 8 0 14 5 14 10 0 7 -13 8 -35 4
-19 -3 -35 -2 -35 3 0 5 9 10 20 11 11 1 29 3 40 4 11 1 20 6 20 10 0 11 18
10 24 -1z m-114 -5 c0 -3 -4 -8 -10 -11 -5 -3 -10 -1 -10 4 0 6 5 11 10 11 6
0 10 -2 10 -4z m170 -14 c-14 -2 -31 -9 -38 -14 -17 -14 -28 -2 -14 15 8 9 23
12 44 8 30 -5 31 -6 8 -9z m169 -23 c-19 -12 -24 -2 -8 17 9 11 14 13 17 4 3
-7 -2 -16 -9 -21z m121 -10 c-35 -28 -60 -41 -60 -32 0 8 32 32 60 45 26 12
26 8 0 -13z m50 1 c0 -5 -4 -10 -10 -10 -5 0 -10 5 -10 10 0 6 5 10 10 10 6 0
10 -4 10 -10z m495 -10 c3 -5 1 -10 -4 -10 -6 0 -11 5 -11 10 0 6 2 10 4 10 3
0 8 -4 11 -10z m-675 -19 c0 -12 -59 -9 -63 4 -3 7 7 9 29 7 19 -2 34 -7 34
-11z m567 -3 c-3 -8 -6 -5 -6 6 -1 11 2 17 5 13 3 -3 4 -12 1 -19z m-767 8 c0
-2 -7 -7 -16 -10 -8 -3 -12 -2 -9 4 6 10 25 14 25 6z m60 -32 c0 -2 -9 -8 -19
-14 -16 -8 -20 -7 -18 9 1 12 7 17 19 13 10 -2 18 -6 18 -8z m37 10 c-3 -3
-12 -4 -19 -1 -8 3 -5 6 6 6 11 1 17 -2 13 -5z m225 -12 c-18 -6 -14 -19 8
-25 11 -3 20 -11 20 -17 0 -7 -7 -10 -17 -5 -10 3 -30 9 -46 12 -31 6 -43 18
-27 28 5 3 10 1 10 -4 0 -6 7 -11 15 -11 8 0 15 9 15 20 0 14 5 18 17 13 11
-4 12 -8 5 -11z m-592 -2 c12 -8 11 -10 -7 -10 -13 0 -23 5 -23 10 0 13 11 13
30 0z m1077 -45 c-6 -5 -12 -14 -13 -20 -5 -41 -17 -54 -48 -49 l-31 4 28 -11
c15 -6 27 -15 27 -19 0 -15 -44 -6 -64 12 -20 18 -20 18 0 33 10 8 28 14 39
13 24 -3 32 11 8 15 -9 1 -20 14 -24 29 -5 20 -4 25 6 21 8 -2 11 -12 7 -21
-5 -15 -4 -15 11 -3 9 7 17 22 17 31 0 17 2 16 25 -3 19 -17 22 -24 12 -32z
m-1017 35 c0 -5 -4 -10 -10 -10 -5 0 -10 5 -10 10 0 6 5 10 10 10 6 0 10 -4
10 -10z m170 -10 c-8 -5 -24 -10 -35 -10 -17 0 -17 2 -5 10 8 5 24 10 35 10
17 0 17 -2 5 -10z m707 -22 c-3 -8 -6 -5 -6 6 -1 11 2 17 5 13 3 -3 4 -12 1
-19z m43 6 c0 -8 -5 -12 -10 -9 -6 4 -8 11 -5 16 9 14 15 11 15 -7z m297 -6
c-3 -8 -6 -5 -6 6 -1 11 2 17 5 13 3 -3 4 -12 1 -19z m-416 -11 c-10 -9 -11
-8 -5 6 3 10 9 15 12 12 3 -3 0 -11 -7 -18z m-671 -7 c0 -4 -18 -6 -40 -3 -26
4 -40 2 -40 -6 0 -6 11 -11 24 -11 14 0 27 -4 30 -8 2 -4 -11 -6 -30 -4 -36 4
-49 15 -41 35 5 14 97 11 97 -3z m490 0 c0 -13 -20 -13 -40 0 -12 8 -9 10 13
10 15 0 27 -4 27 -10z m247 -6 c-3 -3 -12 -4 -19 -1 -8 3 -5 6 6 6 11 1 17 -2
13 -5z m-957 -8 c0 -2 -7 -9 -15 -16 -13 -11 -14 -10 -9 4 5 14 24 23 24 12z
m670 -11 c11 -13 10 -14 -4 -9 -9 3 -16 10 -16 15 0 13 6 11 20 -6z m-110 -15
c22 -11 40 -25 40 -30 0 -14 -12 -12 -34 5 -22 17 -50 20 -41 5 4 -6 -9 -2
-28 7 -24 12 -30 19 -19 22 9 2 18 -2 20 -8 2 -6 8 -11 13 -11 4 0 6 7 3 15
-8 20 -1 19 46 -5z m320 10 c0 -5 -2 -10 -4 -10 -3 0 -8 5 -11 10 -3 6 -1 10
4 10 6 0 11 -4 11 -10z m52 -25 c13 -17 9 -23 -14 -21 -18 1 -24 8 -25 29 -2
26 -1 28 15 15 9 -7 20 -17 24 -23z m462 11 c-3 -9 -10 -13 -16 -10 -5 3 -4
12 3 20 15 18 22 13 13 -10z m-1317 -6 c2 0 3 -4 3 -9 0 -10 -31 -22 -72 -27
-22 -3 -26 -1 -21 14 13 32 26 40 58 31 16 -5 31 -9 32 -9z m893 -25 c0 -19
-5 -25 -22 -25 -13 0 -18 4 -12 8 6 4 13 15 17 25 9 25 17 21 17 -8z m474 10
c-6 -16 -24 -21 -24 -7 0 11 11 22 21 22 5 0 6 -7 3 -15z m442 -20 c12 -9 14
-14 6 -15 -7 0 -20 7 -28 15 -20 19 -4 20 22 0z m-2006 -26 c0 -11 -5 -19 -12
-19 -6 0 -20 -7 -30 -17 -16 -14 -18 -15 -18 0 0 9 4 18 10 22 5 3 7 12 4 19
-4 9 3 14 20 14 19 0 26 -6 26 -19z m1056 -14 c19 -8 34 -19 34 -24 0 -16 -21
-13 -34 5 -7 8 -32 18 -56 21 l-45 6 30 13 c17 7 31 8 33 3 2 -5 19 -16 38
-24z m-109 19 c-3 -3 -12 -4 -19 -1 -8 3 -5 6 6 6 11 1 17 -2 13 -5z m-112
-33 c-3 -5 3 -12 12 -14 11 -3 8 -5 -9 -6 -16 0 -28 4 -28 10 0 7 -10 9 -25 7
-14 -3 -25 -1 -25 3 0 5 18 9 41 9 22 0 38 -4 34 -9z m128 2 c-7 -2 -19 -2
-25 0 -7 3 -2 5 12 5 14 0 19 -2 13 -5z m-175 -45 c12 -6 22 -17 22 -25 0 -15
-16 -18 -25 -3 -3 5 -12 7 -21 3 -14 -5 -43 21 -44 40 0 9 33 2 68 -15z m-158
-48 c0 -5 -7 -10 -15 -10 -8 0 -15 5 -15 10 0 6 7 10 15 10 8 0 15 -4 15 -10z
m103 -1 c48 -1 49 -2 22 -10 -35 -11 -105 -2 -105 13 0 6 7 7 16 4 9 -3 39 -6
67 -7z"/>
<path d="M1735 6660 c-3 -5 1 -10 10 -10 9 0 13 5 10 10 -3 6 -8 10 -10 10 -2
0 -7 -4 -10 -10z"/>
<path d="M2010 7020 c0 -5 5 -10 10 -10 6 0 10 5 10 10 0 6 -4 10 -10 10 -5 0
-10 -4 -10 -10z"/>
<path d="M1586 6705 c-11 -16 -12 -23 -3 -20 16 7 40 45 28 45 -5 0 -16 -11
-25 -25z"/>
<path d="M1990 6720 c20 -13 33 -13 25 0 -3 6 -14 10 -23 10 -15 0 -15 -2 -2
-10z"/>
<path d="M2930 6650 c-9 -16 -8 -18 5 -14 8 4 15 12 15 20 0 20 -7 17 -20 -6z"/>
<path d="M3700 6663 c8 -3 21 -10 28 -16 8 -7 12 -5 12 7 0 11 -8 16 -27 15
-16 0 -22 -3 -13 -6z"/>
<path d="M2100 6650 c0 -5 7 -10 16 -10 8 0 12 5 9 10 -3 6 -10 10 -16 10 -5
0 -9 -4 -9 -10z"/>
<path d="M2000 6633 c0 -7 0 -15 0 -18 0 -3 2 -4 4 -2 10 6 44 -36 39 -49 -4
-10 3 -14 23 -14 15 0 24 3 21 7 -4 3 -1 13 6 21 10 13 9 14 -10 3 -19 -10
-23 -9 -23 3 0 9 -10 21 -22 27 -13 7 -26 17 -30 23 -5 8 -8 7 -8 -1z"/>
<path d="M2190 6620 c0 -5 7 -10 16 -10 8 0 12 5 9 10 -3 6 -10 10 -16 10 -5
0 -9 -4 -9 -10z"/>
<path d="M1796 6611 c-10 -15 5 -19 71 -18 50 1 58 3 45 12 -22 15 -108 19
-116 6z"/>
<path d="M2076 6612 c-3 -5 8 -9 24 -10 17 0 30 4 30 9 0 11 -47 12 -54 1z"/>
<path d="M2223 6606 c-9 -11 -8 -15 5 -18 9 -2 25 -2 35 0 14 3 16 7 6 18 -14
17 -30 17 -46 0z"/>
<path d="M2863 6595 c-10 -11 -8 -18 14 -35 24 -19 28 -19 44 -4 16 14 18 14
22 -3 4 -14 5 -14 6 5 1 24 -24 31 -32 10 -4 -10 -6 -10 -6 0 -1 6 -8 12 -16
12 -9 0 -12 6 -9 15 8 19 -7 19 -23 0z"/>
<path d="M3030 6600 c0 -5 5 -10 11 -10 5 0 7 5 4 10 -3 6 -8 10 -11 10 -2 0
-4 -4 -4 -10z"/>
<path d="M3138 6600 c-2 -6 -13 -12 -26 -13 -27 -2 -30 -17 -2 -17 13 0 18 -5
14 -15 -4 -8 -1 -15 5 -15 6 0 11 9 11 19 0 11 5 23 10 26 6 3 10 10 10 16 0
12 -17 12 -22 -1z"/>
<path d="M1964 6575 c15 -14 32 -25 39 -25 15 1 -40 50 -55 50 -6 0 1 -11 16
-25z"/>
<path d="M2740 6591 c0 -15 49 -19 61 -5 9 11 5 14 -25 14 -20 0 -36 -4 -36
-9z"/>
<path d="M1770 6585 c0 -7 32 -35 41 -35 18 0 9 17 -16 28 -14 6 -25 10 -25 7z"/>
<path d="M1640 6570 c0 -6 12 -8 28 -5 26 6 26 6 8 -9 -20 -16 -20 -16 0 -16
10 0 33 9 49 20 l30 20 -57 0 c-33 0 -58 -4 -58 -10z"/>
<path d="M1885 6570 c-16 -7 -14 -9 13 -7 17 1 32 5 32 9 0 10 -19 9 -45 -2z"/>
<path d="M2285 6560 c4 -6 11 -8 16 -5 14 9 11 15 -7 15 -8 0 -12 -5 -9 -10z"/>
<path d="M2810 6559 c0 -6 -9 -8 -20 -4 -30 10 -24 -2 11 -20 36 -19 40 -17
32 13 -5 22 -23 31 -23 11z"/>
<path d="M3150 6550 c0 -5 5 -10 10 -10 6 0 10 5 10 10 0 6 -4 10 -10 10 -5 0
-10 -4 -10 -10z"/>
<path d="M3192 6540 c0 -14 2 -19 5 -12 2 6 2 18 0 25 -3 6 -5 1 -5 -13z"/>
<path d="M1896 6537 c3 -10 9 -15 12 -12 3 3 0 11 -7 18 -10 9 -11 8 -5 -6z"/>
<path d="M2116 6536 c10 -8 21 -12 24 -10 5 6 -21 24 -34 24 -6 0 -1 -6 10
-14z"/>
<path d="M2736 6536 c7 -18 -7 -21 -22 -6 -7 7 -17 5 -30 -4 -18 -14 -18 -15
14 -22 17 -3 32 -10 32 -15 0 -4 12 -6 28 -4 15 2 34 4 42 5 12 0 11 3 -3 11
-10 6 -24 8 -31 6 -9 -4 -13 2 -12 15 0 12 -5 23 -12 25 -7 3 -10 -1 -6 -11z"/>
<path d="M2856 6536 c3 -9 13 -16 22 -16 8 0 13 1 11 3 -2 1 -12 9 -22 16 -15
12 -17 12 -11 -3z"/>
<path d="M1718 6533 c7 -3 16 -2 19 1 4 3 -2 6 -13 5 -11 0 -14 -3 -6 -6z"/>
<path d="M1920 6530 c0 -5 5 -10 10 -10 6 0 10 5 10 10 0 6 -4 10 -10 10 -5 0
-10 -4 -10 -10z"/>
<path d="M2020 6531 c0 -6 8 -11 18 -11 10 0 22 -4 28 -8 5 -5 20 -6 34 -2 24
6 23 7 -10 14 -19 4 -43 10 -52 12 -10 3 -18 1 -18 -5z"/>
<path d="M1560 6520 c0 -5 5 -10 11 -10 5 0 7 5 4 10 -3 6 -8 10 -11 10 -2 0
-4 -4 -4 -10z"/>
<path d="M3690 6490 c20 -13 33 -13 25 0 -3 6 -14 10 -23 10 -15 0 -15 -2 -2
-10z"/>
<path d="M2138 6483 c6 -2 18 -2 25 0 6 3 1 5 -13 5 -14 0 -19 -2 -12 -5z"/>
<path d="M1398 6433 c-11 -12 -13 -25 -8 -38 6 -14 9 -16 10 -5 2 8 2 19 1 24
-1 4 4 14 10 22 17 20 5 17 -13 -3z"/>
<path d="M2415 6380 c3 -5 15 -10 26 -10 10 0 19 5 19 10 0 6 -12 10 -26 10
-14 0 -23 -4 -19 -10z"/>
<path d="M1314 6318 l-19 -23 23 19 c21 18 27 26 19 26 -2 0 -12 -10 -23 -22z"/>
<path d="M1353 6318 c-15 -20 -25 -38 -20 -38 3 0 12 11 21 25 17 26 16 35 -1
13z"/>
<path d="M1276 6233 c-6 -14 -5 -15 5 -6 7 7 10 15 7 18 -3 3 -9 -2 -12 -12z"/>
<path d="M3882 6200 c18 -27 37 -50 42 -50 5 0 2 8 -5 17 -12 15 -12 16 6 9
13 -5 6 7 -20 33 -53 55 -62 52 -23 -9z"/>
<path d="M3920 6225 c13 -14 28 -25 33 -25 6 0 0 11 -13 25 -13 14 -28 25 -33
25 -6 0 0 -11 13 -25z"/>
<path d="M4092 6160 c14 -22 24 -19 15 5 -4 8 -11 15 -17 15 -6 0 -6 -7 2 -20z"/>
<path d="M3845 6148 c4 -13 8 -35 10 -50 2 -15 15 -42 29 -59 14 -17 24 -35
20 -40 -3 -5 0 -9 5 -9 6 0 11 -8 11 -17 0 -10 8 -27 16 -38 15 -20 15 -19 12
5 -4 29 15 44 20 16 2 -11 10 -26 18 -34 12 -11 15 -11 20 3 6 14 11 11 27
-15 20 -32 20 -32 32 -10 10 18 9 29 -2 52 -8 16 -12 35 -9 43 3 8 1 15 -4 15
-6 0 -10 -4 -10 -10 0 -5 -4 -10 -10 -10 -5 0 -10 8 -10 18 -1 21 -66 96 -74
83 -3 -5 1 -14 8 -21 8 -6 18 -24 21 -40 3 -16 13 -34 21 -41 18 -14 18 -29 1
-29 -8 0 -20 12 -28 28 -7 15 -32 52 -55 82 -23 30 -44 64 -48 75 -7 19 -6 19
16 -1 32 -29 53 -41 43 -23 -21 33 -41 49 -63 49 -21 0 -23 -3 -17 -22z m220
-218 c3 -5 1 -10 -4 -10 -6 0 -11 5 -11 10 0 6 2 10 4 10 3 0 8 -4 11 -10z"/>
<path d="M4004 6115 c4 -15 13 -34 21 -41 7 -8 15 -19 17 -25 2 -7 9 -10 16
-8 9 3 5 17 -12 49 -28 52 -52 67 -42 25z"/>
<path d="M4110 6122 c0 -5 7 -16 16 -23 14 -12 16 -11 13 5 -4 20 -29 35 -29
18z"/>
<path d="M4080 6092 c0 -4 10 -9 22 -9 18 -2 20 0 8 7 -18 12 -30 13 -30 2z"/>
<path d="M3890 5941 c0 -6 4 -13 10 -16 6 -3 7 1 4 9 -7 18 -14 21 -14 7z"/>
<path d="M3920 5875 c0 -8 6 -15 14 -15 8 0 17 -6 19 -12 4 -9 6 -8 6 2 1 8
-8 21 -19 28 -17 10 -20 10 -20 -3z"/>
<path d="M3875 5833 c4 -21 10 -40 14 -43 4 -3 20 -26 36 -52 17 -27 33 -48
38 -48 13 0 7 25 -13 50 -11 14 -20 29 -20 33 0 4 -9 28 -20 53 -25 55 -45 59
-35 7z"/>
<path d="M3990 5823 c0 -12 5 -25 11 -28 19 -12 22 3 5 27 l-16 22 0 -21z"/>
<path d="M1050 5814 c0 -8 5 -12 10 -9 6 4 8 11 5 16 -9 14 -15 11 -15 -7z"/>
<path d="M3845 5765 c7 -61 22 -102 41 -109 17 -7 19 15 2 32 -9 9 -9 15 0 24
7 7 12 19 12 27 0 8 -3 11 -6 8 -7 -6 -36 26 -47 53 -4 8 -5 -7 -2 -35z"/>
<path d="M1095 5685 c-4 -25 -5 -48 -2 -51 2 -3 8 16 12 41 3 26 4 49 2 52 -3
3 -9 -16 -12 -42z"/>
<path d="M3902 5711 c4 -13 18 -16 19 -4 0 4 -5 9 -11 12 -7 2 -11 -2 -8 -8z"/>
<path d="M4015 5681 c1 -42 33 -104 35 -66 0 17 2 18 11 5 9 -13 10 -13 6 0
-2 8 -9 15 -15 15 -10 0 -14 7 -11 18 7 23 4 38 -10 51 -16 14 -17 13 -16 -23z"/>
<path d="M3830 5674 c1 -17 50 -70 50 -53 0 8 -11 26 -25 39 -14 13 -25 19
-25 14z"/>
<path d="M4140 5675 c0 -18 19 -40 26 -32 4 4 0 15 -9 24 -9 10 -17 13 -17 8z"/>
<path d="M3970 5645 c0 -8 2 -15 4 -15 2 0 6 7 10 15 3 8 1 15 -4 15 -6 0 -10
-7 -10 -15z"/>
<path d="M3941 5614 c0 -11 3 -14 6 -6 3 7 2 16 -1 19 -3 4 -6 -2 -5 -13z"/>
<path d="M3970 5602 c0 -10 -5 -23 -10 -28 -10 -10 8 -64 22 -64 4 0 2 12 -5
27 -9 21 -9 27 1 31 14 4 16 52 2 52 -5 0 -10 -8 -10 -18z"/>
<path d="M3847 5595 c6 -11 14 -45 18 -75 3 -30 12 -68 20 -85 7 -16 15 -37
19 -45 3 -8 5 1 4 20 -1 19 1 41 6 48 4 6 2 12 -3 12 -6 0 -11 13 -11 29 0 17
-4 33 -10 36 -5 3 -10 14 -10 24 0 10 -10 26 -21 37 -22 19 -22 19 -12 -1z"/>
<path d="M3897 5590 c3 -11 7 -20 9 -20 2 0 4 9 4 20 0 11 -4 20 -9 20 -5 0
-7 -9 -4 -20z"/>
<path d="M4011 5584 c0 -11 3 -14 6 -6 3 7 2 16 -1 19 -3 4 -6 -2 -5 -13z"/>
<path d="M4100 5581 c0 -10 27 -41 36 -41 7 0 -15 38 -26 45 -6 3 -10 2 -10
-4z"/>
<path d="M1092 5441 c-1 -57 0 -102 3 -99 9 8 12 115 5 160 -5 31 -7 15 -8
-61z"/>
<path d="M4098 5473 c5 -21 7 -23 10 -9 2 10 0 22 -6 28 -6 6 -7 0 -4 -19z"/>
<path d="M3980 5475 c0 -5 5 -17 10 -25 5 -8 10 -10 10 -5 0 6 -5 17 -10 25
-5 8 -10 11 -10 5z"/>
<path d="M3923 5395 c0 -22 2 -30 4 -17 2 12 2 30 0 40 -3 9 -5 -1 -4 -23z"/>
<path d="M3983 5412 c-7 -4 -9 -13 -4 -21 6 -9 10 -7 14 8 3 12 4 21 4 21 -1
0 -7 -4 -14 -8z"/>
<path d="M1061 5374 c0 -11 3 -14 6 -6 3 7 2 16 -1 19 -3 4 -6 -2 -5 -13z"/>
<path d="M4120 5386 c0 -2 7 -9 15 -16 13 -11 14 -10 9 4 -5 14 -24 23 -24 12z"/>
<path d="M3870 5369 c0 -6 9 -22 20 -36 23 -29 26 -20 8 20 -13 27 -28 36 -28
16z"/>
<path d="M3945 5359 c-4 -6 -5 -12 -2 -15 2 -3 7 2 10 11 7 17 1 20 -8 4z"/>
<path d="M4100 5356 c0 -20 29 -66 41 -66 11 0 -10 56 -27 71 -11 9 -14 8 -14
-5z"/>
<path d="M3970 5348 c0 -9 5 -20 10 -23 13 -8 13 5 0 25 -8 13 -10 13 -10 -2z"/>
<path d="M3932 5310 c-9 -15 -10 -25 -2 -38 8 -13 10 -13 8 -2 -2 9 2 18 7 20
6 3 11 -6 13 -20 3 -29 22 -70 33 -70 11 0 21 49 12 63 -4 7 -6 21 -4 31 2 14
-1 17 -14 12 -11 -4 -22 0 -29 9 -10 13 -13 13 -24 -5z"/>
<path d="M1092 5300 c0 -14 2 -19 5 -12 2 6 2 18 0 25 -3 6 -5 1 -5 -13z"/>
<path d="M4110 5287 c0 -9 32 -68 36 -65 7 8 -13 62 -24 66 -7 2 -12 2 -12 -1z"/>
<path d="M1088 5235 c-2 -19 0 -35 4 -35 4 0 8 3 9 8 0 4 2 17 3 30 2 13 -1
25 -5 27 -4 3 -9 -11 -11 -30z"/>
<path d="M1560 5255 c-14 -8 -34 -15 -45 -15 -24 -1 -61 -27 -52 -36 10 -10
-12 -34 -30 -34 -12 0 -13 3 -4 14 23 27 -8 28 -43 1 -54 -41 -68 -68 -57
-113 1 -2 8 4 17 12 8 9 23 15 32 15 15 -1 15 -2 0 -6 -30 -8 -20 -23 14 -23
34 0 29 -15 -7 -23 -11 -2 3 -3 30 -1 l50 3 -40 -14 c-22 -7 -36 -14 -31 -14
5 -1 -4 -13 -20 -28 -40 -38 -43 -63 -7 -63 15 0 23 -4 17 -8 -6 -4 -13 -15
-17 -25 -4 -10 -11 -15 -17 -12 -5 3 -10 2 -10 -4 0 -6 13 -9 29 -8 16 1 27 5
24 10 -2 4 3 7 12 7 9 0 26 9 38 21 l22 20 11 -26 c5 -14 13 -23 16 -20 3 3
18 -1 33 -9 16 -8 50 -20 77 -26 26 -7 48 -17 48 -22 0 -6 -9 -8 -19 -5 -12 3
-27 -3 -36 -13 -15 -16 -14 -18 20 -24 27 -5 35 -12 33 -24 -2 -9 -13 -18 -26
-20 -31 -5 -28 -22 5 -22 14 0 23 -3 20 -6 -7 -7 -37 -13 -104 -21 -46 -5 -60
-23 -19 -23 16 0 27 -7 31 -20 4 -11 14 -19 22 -18 9 2 18 -2 20 -9 2 -6 -7
-13 -22 -15 -54 -7 -22 -23 61 -32 148 -16 258 22 365 124 50 49 58 61 64 105
3 28 10 72 16 98 5 26 9 67 9 90 0 23 7 55 15 71 19 36 19 36 -8 36 -21 0 -77
51 -77 71 0 5 -7 9 -16 9 -8 0 -22 7 -30 15 -9 8 -25 15 -37 15 -13 0 -32 6
-43 14 -11 8 -40 17 -64 20 -25 3 -57 8 -73 12 -15 3 -39 2 -55 -4 -15 -6 -36
-13 -47 -17 -11 -4 -35 -7 -54 -6 -24 2 -31 -1 -26 -10 6 -9 2 -11 -13 -7 -12
4 -22 3 -22 0 0 -4 -11 -8 -25 -8 -14 -1 -25 2 -25 6 0 9 25 20 48 20 9 0 28
9 42 20 29 23 16 26 -20 5z m69 -59 c-2 -2 -22 -6 -44 -9 -28 -5 -34 -4 -20 3
19 8 73 14 64 6z m-224 -36 c-3 -5 -13 -10 -21 -10 -8 0 -12 5 -9 10 3 6 13
10 21 10 8 0 12 -4 9 -10z m155 -215 c11 -13 15 -13 23 -3 9 13 6 0 -10 -39
-4 -11 -3 -14 5 -9 7 4 12 2 12 -3 0 -6 -7 -11 -15 -11 -8 0 -15 3 -15 8 0 4
-14 14 -32 21 -18 8 -27 16 -20 19 7 2 19 -2 28 -8 22 -19 30 -3 9 20 -10 11
-13 20 -8 20 6 0 16 -7 23 -15z m64 -50 c23 -23 23 -25 6 -25 -11 0 -24 9 -30
19 -20 39 -11 41 24 6z m108 -64 c-12 -7 -62 -4 -62 5 0 2 17 4 38 4 23 0 32
-3 24 -9z"/>
<path d="M1056 5233 c-6 -14 -5 -15 5 -6 7 7 10 15 7 18 -3 3 -9 -2 -12 -12z"/>
<path d="M1385 5230 c-3 -5 -1 -10 4 -10 6 0 11 5 11 10 0 6 -2 10 -4 10 -3 0
-8 -4 -11 -10z"/>
<path d="M2641 5223 c-19 -6 -52 -15 -73 -18 -29 -5 -42 -14 -54 -36 -8 -16
-13 -33 -10 -38 3 -4 -1 -20 -9 -35 -8 -14 -14 -39 -13 -54 0 -15 -3 -54 -7
-87 -4 -38 -3 -71 4 -89 10 -25 15 -28 44 -22 36 6 63 -6 52 -23 -4 -7 -2 -17
3 -24 5 -7 13 -26 16 -43 11 -50 122 -128 166 -117 11 3 20 1 20 -4 0 -5 20
-19 44 -31 36 -18 54 -21 112 -17 38 3 71 10 72 15 2 6 8 8 12 5 5 -3 24 1 42
8 18 8 39 12 46 9 15 -5 44 17 37 28 -6 10 42 31 58 24 7 -2 24 0 38 5 17 7
-4 9 -81 9 -121 0 -174 8 -191 28 -9 11 -9 14 0 14 23 0 60 31 54 46 -4 11
-18 15 -49 13 -24 -2 -46 0 -50 4 -4 4 -19 8 -33 8 -41 2 46 18 101 18 42 1
50 5 82 43 20 23 36 48 36 55 0 8 12 13 30 13 17 0 30 -4 30 -8 0 -14 -39 -51
-70 -67 -64 -33 -11 -28 67 7 41 18 43 18 98 -1 30 -11 81 -22 113 -26 31 -3
73 -8 92 -11 l35 -5 -35 17 c-58 26 -64 30 -68 42 -2 8 10 12 35 13 21 1 49 4
63 8 24 7 24 7 -9 14 -18 4 -44 7 -58 7 -13 0 -56 21 -94 46 -39 25 -73 43
-76 41 -3 -3 -23 1 -45 9 -23 8 -72 17 -110 21 -38 3 -71 9 -73 14 -17 27 100
35 182 13 38 -10 79 -15 105 -11 23 3 36 2 30 -2 -10 -6 -10 -11 2 -20 21 -17
52 -9 48 12 -2 9 2 17 9 17 8 0 9 -10 5 -31 -5 -26 -3 -30 10 -25 8 3 24 1 35
-4 22 -12 24 -7 9 21 -6 10 -17 19 -25 19 -8 0 -12 6 -9 14 3 8 1 23 -5 33 -6
10 -11 13 -11 7 0 -7 -20 -14 -45 -16 -51 -4 -62 9 -12 14 27 3 29 5 12 12
-11 4 -30 12 -42 18 -11 6 -26 7 -32 4 -5 -4 -37 6 -70 22 -39 19 -62 25 -66
18 -3 -7 -7 -7 -11 2 -8 18 -24 4 -17 -15 5 -13 1 -15 -23 -9 -16 4 -45 11
-64 15 -22 6 -27 9 -15 11 11 1 -7 10 -40 21 -34 10 -73 16 -90 13 -16 -3 -41
-1 -55 5 l-25 10 29 0 c16 1 26 4 22 9 -12 12 -197 8 -235 -5z m379 -163 c0
-5 -7 -10 -16 -10 -8 0 -12 5 -9 10 3 6 10 10 16 10 5 0 9 -4 9 -10z m-183
-186 c-3 -3 -12 -4 -19 -1 -8 3 -5 6 6 6 11 1 17 -2 13 -5z"/>
<path d="M3064 5194 c3 -9 6 -18 6 -20 0 -2 9 -4 19 -4 32 0 32 15 0 27 -26
10 -30 10 -25 -3z"/>
<path d="M1083 5175 c0 -8 4 -12 9 -9 4 3 8 9 8 15 0 5 -4 9 -8 9 -5 0 -9 -7
-9 -15z"/>
<path d="M4030 5173 c0 -12 5 -25 10 -28 6 -3 10 -15 10 -26 0 -11 4 -18 9
-14 6 3 6 18 -1 38 -14 42 -28 57 -28 30z"/>
<path d="M3986 5144 c5 -30 3 -40 -11 -51 -16 -11 -19 -29 -20 -102 -2 -68 1
-88 10 -84 7 2 16 14 19 26 5 18 8 19 15 8 6 -10 11 3 16 43 5 38 4 61 -4 69
-8 8 -11 7 -11 -3 0 -13 -2 -13 -10 0 -14 21 -12 30 5 30 20 0 18 70 -2 89
-12 11 -13 7 -7 -25z m1 -171 c-3 -10 -5 -4 -5 12 0 17 2 24 5 18 2 -7 2 -21
0 -30z"/>
<path d="M4090 5139 c0 -17 27 -76 38 -83 4 -2 19 6 33 17 l27 22 -23 23 c-19
20 -23 21 -28 8 -4 -9 -2 -16 3 -16 6 0 10 -7 10 -15 0 -8 -4 -15 -10 -15 -5
0 -10 6 -10 14 0 8 -9 24 -20 37 -15 18 -19 20 -20 8z"/>
<path d="M1087 5107 c-4 -10 -6 -42 -6 -70 l1 -52 9 55 c11 61 8 97 -4 67z"/>
<path d="M4031 5084 c0 -11 3 -14 6 -6 3 7 2 16 -1 19 -3 4 -6 -2 -5 -13z"/>
<path d="M4082 5070 c7 -10 14 -18 15 -16 6 6 -9 36 -18 36 -5 0 -4 -9 3 -20z"/>
<path d="M4048 5043 c7 -3 16 -2 19 1 4 3 -2 6 -13 5 -11 0 -14 -3 -6 -6z"/>
<path d="M4045 5010 c3 -5 8 -10 11 -10 2 0 4 5 4 10 0 6 -5 10 -11 10 -5 0
-7 -4 -4 -10z"/>
<path d="M4250 4951 c-33 -27 -34 -29 -22 -68 7 -22 12 -51 12 -63 0 -56 44
-121 71 -105 7 5 6 190 -1 190 -2 0 -10 37 -12 58 -3 23 -8 22 -48 -12z"/>
<path d="M1086 4953 c-6 -14 -5 -15 5 -6 7 7 10 15 7 18 -3 3 -9 -2 -12 -12z"/>
<path d="M3178 4843 c7 -3 16 -2 19 1 4 3 -2 6 -13 5 -11 0 -14 -3 -6 -6z"/>
<path d="M1545 4824 c9 -10 22 -13 33 -9 15 7 15 8 -3 15 -35 15 -48 12 -30
-6z"/>
<path d="M3971 4824 c0 -11 3 -14 6 -6 3 7 2 16 -1 19 -3 4 -6 -2 -5 -13z"/>
<path d="M3057 4799 c7 -7 15 -10 18 -7 3 3 -2 9 -12 12 -14 6 -15 5 -6 -5z"/>
<path d="M4038 4723 c-9 -3 -18 -16 -20 -31 -3 -29 11 -83 25 -93 5 -3 7 -13
5 -22 -2 -9 1 -16 6 -15 5 0 13 -7 18 -16 5 -9 18 -16 28 -16 40 0 47 51 15
117 -26 55 -53 81 -77 76z"/>
<path d="M3952 4660 c0 -14 2 -19 5 -12 2 6 2 18 0 25 -3 6 -5 1 -5 -13z"/>
<path d="M3994 4615 c-9 -37 2 -41 14 -6 7 18 7 31 2 31 -5 0 -12 -11 -16 -25z"/>
<path d="M1886 4224 c-9 -8 -21 -25 -27 -37 -7 -14 1 -10 20 12 17 18 31 35
31 37 0 8 -9 3 -24 -12z"/>
<path d="M1910 4054 c0 -14 22 -44 29 -39 5 3 12 -2 15 -11 4 -9 13 -14 21
-10 8 3 15 1 15 -4 0 -6 5 -10 10 -10 19 0 10 19 -22 49 -29 27 -68 42 -68 25z"/>
<path d="M2485 4046 c-11 -6 -39 -22 -62 -35 -52 -30 -55 -44 -8 -35 26 5 35
3 35 -7 0 -9 3 -10 8 -3 8 13 82 6 82 -7 0 -5 -9 -9 -20 -9 -11 0 -20 -4 -20
-10 0 -5 10 -10 23 -10 38 0 67 12 67 26 0 8 6 17 14 20 19 7 11 53 -12 70
-21 16 -80 16 -107 0z"/>
<path d="M3941 4024 c0 -11 3 -14 6 -6 3 7 2 16 -1 19 -3 4 -6 -2 -5 -13z"/>
<path d="M2340 3940 c0 -5 5 -10 11 -10 5 0 7 5 4 10 -3 6 -8 10 -11 10 -2 0
-4 -4 -4 -10z"/>
<path d="M2300 3895 c-19 -14 -46 -24 -60 -23 -30 2 -110 -23 -92 -29 20 -7 3
-23 -24 -23 -17 0 -27 -8 -34 -24 -5 -13 -14 -27 -21 -31 -11 -8 41 -37 68
-38 6 0 9 -6 6 -13 -3 -9 9 -14 39 -16 76 -5 139 9 170 39 15 14 28 21 28 15
0 -7 9 -12 20 -12 24 0 24 3 4 41 -8 17 -13 37 -10 45 3 7 1 16 -4 19 -6 4
-10 1 -10 -4 0 -6 -6 -11 -14 -11 -8 0 -13 11 -12 28 1 20 7 28 24 30 32 5 22
27 -14 29 -18 2 -42 -7 -64 -22z"/>
<path d="M1634 3673 c-3 -16 -7 -33 -9 -39 -2 -7 7 -33 21 -59 28 -55 67 -82
99 -66 11 6 43 13 70 15 28 2 56 4 63 5 6 1 12 8 12 16 0 19 24 19 86 0 27 -8
59 -15 71 -15 12 0 28 -7 37 -15 8 -8 23 -14 33 -13 56 4 87 -13 43 -25 -11
-3 -20 -1 -20 4 0 4 -7 6 -16 2 -15 -6 -15 -8 2 -20 13 -10 14 -13 3 -13 -12
0 -12 -2 1 -10 12 -8 11 -10 -6 -10 -33 0 -35 -11 -6 -39 43 -43 102 -56 242
-56 130 0 172 11 237 63 22 17 20 17 -69 20 -53 2 -102 9 -118 17 -15 8 -29
13 -31 11 -2 -2 -17 -6 -34 -10 -22 -5 -26 -4 -15 4 12 8 11 10 -6 10 -24 0
-94 27 -94 36 0 3 12 3 26 0 22 -6 25 -4 19 14 -5 17 -2 19 22 17 15 -2 37 -7
47 -12 13 -6 22 -3 30 7 9 12 17 13 29 7 10 -6 17 -6 17 -1 0 12 73 21 240 31
106 6 144 5 175 -6 21 -7 73 -15 115 -17 41 -2 85 -7 96 -11 19 -6 22 -2 29
42 4 26 7 50 6 53 -1 7 -124 8 -136 1 -18 -10 -40 -6 -47 9 -6 13 -7 13 -7 -1
-1 -11 -10 -16 -26 -16 -14 0 -45 -6 -68 -12 -28 -8 -82 -10 -157 -7 -211 11
-444 25 -529 31 -54 5 -86 4 -90 -3 -3 -6 -38 -13 -78 -16 -61 -4 -75 -2 -96
14 -14 11 -30 20 -35 20 -5 0 -15 6 -22 14 -6 8 -17 13 -24 10 -7 -3 -26 0
-41 6 -23 9 -26 13 -15 20 12 7 11 10 -4 16 -11 4 -22 1 -28 -7 -7 -11 -11
-11 -15 -1 -8 21 -22 13 -29 -15z"/>
<path d="M2375 3481 c-3 -5 -1 -12 5 -16 5 -3 10 1 10 9 0 18 -6 21 -15 7z"/>
<path d="M2057 3429 c7 -7 15 -10 18 -7 3 3 -2 9 -12 12 -14 6 -15 5 -6 -5z"/>
<path d="M1702 3043 c-11 -11 -17 -11 -27 -3 -8 7 -18 9 -23 6 -11 -7 -3 -56
9 -56 5 0 9 -6 9 -14 0 -22 19 -29 36 -15 12 10 16 9 21 -9 3 -12 9 -20 13
-17 13 8 33 -24 25 -42 -6 -17 -7 -17 -20 1 -8 10 -18 16 -24 15 -5 -2 -1 -15
10 -28 15 -19 22 -21 33 -11 12 9 17 5 26 -29 8 -31 14 -39 27 -34 13 5 15 2
9 -20 -3 -14 -2 -29 4 -32 5 -3 10 1 10 9 0 21 18 30 35 16 19 -16 19 -31 0
-24 -10 4 -15 0 -15 -15 0 -12 5 -21 10 -21 6 0 10 -7 10 -15 0 -9 12 -21 28
-28 15 -6 31 -17 35 -24 4 -7 15 -13 22 -13 18 0 18 -10 1 -33 -8 -10 -20 -15
-29 -11 -10 3 -17 -1 -19 -13 -4 -22 31 -44 50 -30 8 6 12 5 13 -4 1 -8 2 -31
3 -52 2 -25 12 -47 30 -65 14 -16 24 -31 21 -34 -3 -2 6 -11 20 -18 14 -8 28
-24 31 -37 4 -13 9 -23 13 -23 12 0 61 -48 61 -60 0 -6 8 -25 17 -41 14 -23
15 -33 6 -48 -10 -16 -8 -20 13 -30 13 -6 24 -15 24 -20 0 -5 9 -11 20 -14 11
-3 20 -10 20 -16 0 -6 -9 -11 -20 -11 -11 0 -20 -3 -20 -8 0 -4 9 -13 20 -20
26 -16 25 -31 -2 -42 -22 -8 -22 -9 -2 -9 18 -1 22 -9 28 -62 10 -96 9 -99
-19 -99 -14 0 -25 -5 -25 -11 0 -8 13 -9 40 -5 25 4 40 2 40 -4 0 -5 -15 -10
-34 -10 -44 0 -56 -17 -19 -25 15 -3 46 -11 68 -17 77 -21 148 -20 239 1 48
12 99 21 113 21 29 0 59 12 198 81 109 53 125 58 104 32 -13 -16 -12 -17 4 -4
9 7 17 20 17 27 0 8 5 14 10 14 15 0 100 89 100 105 0 8 6 18 13 22 7 4 26 26
43 48 36 50 50 65 61 65 4 0 18 8 31 18 20 16 28 32 31 65 1 4 7 7 15 7 16 0
31 18 23 26 -5 5 -71 -29 -95 -49 -7 -5 -27 -10 -44 -9 -21 0 -40 -7 -55 -23
-37 -36 -161 -38 -184 -2 -4 5 -13 -1 -21 -12 -13 -19 -17 -20 -28 -6 -11 13
-7 17 24 30 20 8 36 19 36 24 0 5 8 11 18 14 25 9 175 107 192 126 3 3 25 19
50 36 84 55 290 239 290 259 0 4 -28 -16 -63 -47 -34 -30 -71 -57 -82 -59 -11
-2 -19 -9 -18 -15 3 -14 -124 -76 -138 -67 -6 4 -4 13 6 24 8 9 13 24 10 32
-4 10 4 22 22 34 41 27 133 128 133 146 0 9 9 18 20 21 25 6 27 29 3 25 -13
-2 -17 3 -16 20 2 13 -4 25 -12 28 -20 8 -47 -15 -40 -34 4 -11 -1 -13 -24 -9
-17 4 -33 2 -36 -3 -7 -11 31 -23 46 -14 8 4 9 3 5 -4 -4 -7 -19 -12 -34 -13
-15 0 -21 -3 -14 -6 17 -7 15 -23 -3 -23 -10 0 -15 10 -15 30 0 23 -5 30 -19
30 -22 0 -33 21 -21 40 7 11 11 11 26 -1 11 -9 15 -9 10 -1 -4 7 0 20 10 30
17 16 17 17 -2 20 -36 7 -36 19 0 26 39 7 54 22 38 38 -6 6 -20 4 -40 -6 -18
-9 -33 -12 -37 -6 -6 10 0 54 11 71 5 8 -1 10 -19 7 -24 -5 -26 -3 -20 25 4
22 3 28 -6 23 -6 -4 -18 -3 -26 4 -11 9 -16 7 -24 -8 -7 -13 -22 -19 -47 -20
-40 -2 -67 -25 -90 -79 -7 -17 -25 -40 -38 -51 -14 -11 -23 -22 -20 -25 3 -3
3 -11 -2 -18 -5 -9 -11 -7 -21 6 -12 18 -13 18 -13 -4 0 -16 -4 -21 -15 -17
-10 4 -15 -1 -15 -16 0 -16 -3 -18 -14 -9 -10 8 -21 7 -44 -5 -19 -9 -41 -13
-54 -8 -12 3 -46 6 -75 5 -29 0 -53 3 -53 9 0 13 -32 0 -47 -19 -8 -11 -12
-12 -13 -3 0 15 -34 16 -61 2 -15 -8 -21 -7 -25 5 -3 8 -10 12 -15 9 -5 -3 -9
-1 -9 3 0 15 -58 44 -65 33 -4 -7 -17 -4 -36 7 -28 17 -31 17 -40 1 -5 -10
-17 -14 -29 -11 -15 4 -20 0 -20 -16 0 -11 5 -21 12 -21 6 0 8 -3 5 -6 -13
-13 -39 20 -34 43 5 27 -8 40 -17 17 -3 -8 -10 -12 -16 -9 -5 3 -10 -1 -10 -9
0 -21 -21 -31 -31 -15 -7 11 -9 10 -9 -3 0 -10 -7 -18 -15 -18 -8 0 -15 4 -15
9 0 15 -28 20 -61 11 -39 -12 -59 -2 -34 17 26 18 10 17 -19 -3 -14 -9 -27
-11 -30 -5 -3 5 -15 7 -26 4 -24 -7 -130 43 -130 61 0 23 -40 65 -55 59 -9 -3
-15 1 -15 8 0 8 -12 33 -28 55 -23 36 -29 40 -40 27z m1453 -113 c3 -5 1 -10
-4 -10 -6 0 -11 5 -11 10 0 6 2 10 4 10 3 0 8 -4 11 -10z m35 -70 c8 -5 11
-12 7 -17 -5 -4 -11 -2 -15 4 -4 6 -25 13 -47 16 l-40 4 40 1 c22 1 47 -2 55
-8z m-953 -52 c-3 -8 -6 -5 -6 6 -1 11 2 17 5 13 3 -3 4 -12 1 -19z m983 -53
c0 -9 -9 -15 -21 -15 -18 0 -19 2 -9 15 7 8 16 15 21 15 5 0 9 -7 9 -15z
m-1302 -39 c-7 -8 -15 -12 -17 -11 -5 6 10 25 20 25 5 0 4 -6 -3 -14z m1152
-6 c0 -5 -7 -10 -15 -10 -8 0 -15 5 -15 10 0 6 7 10 15 10 8 0 15 -4 15 -10z
m-214 -547 c-11 -11 -17 4 -9 23 7 18 8 18 11 1 2 -10 1 -21 -2 -24z m-18
-257 c-13 -13 -33 -26 -46 -29 -22 -5 -23 -4 -9 16 12 18 39 32 70 36 4 1 -2
-10 -15 -23z"/>
<path d="M3215 3051 c-3 -5 -1 -12 5 -16 5 -3 10 1 10 9 0 18 -6 21 -15 7z"/>
<path d="M3930 2985 c0 -55 2 -66 13 -56 15 15 14 98 -1 113 -9 9 -12 -5 -12
-57z"/>
<path d="M3254 3002 c-6 -4 -14 -15 -17 -26 -5 -13 -3 -17 8 -13 8 4 17 2 20
-3 4 -6 11 -10 17 -10 6 0 3 9 -7 20 -10 11 -13 20 -7 20 7 0 12 5 12 10 0 12
-11 13 -26 2z"/>
<path d="M3308 2953 c6 -2 18 -2 25 0 6 3 1 5 -13 5 -14 0 -19 -2 -12 -5z"/>
<path d="M3895 2860 c-9 -16 -13 -30 -11 -30 3 0 12 14 21 30 9 17 13 30 11
30 -3 0 -12 -13 -21 -30z"/>
<path d="M3288 2831 c-10 -10 -16 -20 -13 -23 9 -9 55 16 55 30 0 17 -22 14
-42 -7z"/>
<path d="M2540 2820 c0 -5 5 -10 11 -10 5 0 7 5 4 10 -3 6 -8 10 -11 10 -2 0
-4 -4 -4 -10z"/>
<path d="M1883 2644 c-15 -16 -17 -48 -3 -39 15 9 31 43 23 48 -5 3 -14 -1
-20 -9z"/>
<path d="M1815 2630 c4 -6 11 -8 16 -5 14 9 11 15 -7 15 -8 0 -12 -5 -9 -10z"/>
<path d="M3280 2550 c-8 -5 -11 -12 -7 -17 5 -4 11 -3 15 3 4 6 14 14 22 17
13 5 13 5 0 6 -8 0 -22 -3 -30 -9z"/>
<path d="M4360 2439 c-17 -66 -34 -114 -79 -223 -43 -106 -68 -184 -81 -256
-4 -25 -15 -72 -24 -105 -72 -281 -86 -416 -93 -924 -2 -212 -8 -403 -12 -425
-3 -22 -1 -76 6 -121 7 -44 20 -134 29 -200 9 -66 20 -134 26 -152 l9 -32 222
3 c123 1 228 6 235 10 7 4 12 3 12 -3 0 -12 187 -5 224 9 15 5 26 6 26 0 0 -4
-8 -11 -17 -13 -10 -3 21 -4 69 -3 48 0 88 4 88 9 0 4 5 7 11 7 5 0 7 -5 3
-12 -5 -8 12 -9 67 -3 41 4 81 7 89 7 8 0 89 -3 180 -6 91 -3 180 -3 198 1
l33 6 -2 111 c-1 65 -7 125 -15 145 -8 18 -14 48 -14 65 0 18 -6 55 -14 82
-15 48 -42 189 -51 253 -2 18 -8 38 -14 45 -17 20 -24 126 -24 356 -1 208 0
219 31 350 59 246 64 260 83 271 18 9 19 21 17 142 l-3 131 -34 23 c-18 12
-37 20 -42 18 -4 -3 -11 0 -14 5 -5 8 -14 5 -28 -7 -11 -10 -17 -12 -13 -5 4
7 1 15 -8 18 -9 3 -16 12 -16 20 0 8 -9 14 -20 14 -11 0 -20 5 -20 10 0 6 -5
10 -11 10 -6 0 -23 9 -38 19 -21 15 -70 34 -121 46 -30 7 -49 18 -45 26 3 5
-1 6 -9 3 -9 -3 -16 -2 -16 4 0 10 -114 57 -141 57 -15 1 -43 11 -136 51 -17
8 -34 14 -37 14 -3 0 -25 9 -49 19 -61 27 -81 34 -91 32 -4 -1 -13 2 -20 8
-21 17 -145 81 -158 81 -7 0 -24 6 -38 13 -14 7 -38 14 -54 15 -17 1 -33 7
-37 14 -4 7 -12 -7 -19 -33z m320 -2409 c-8 -5 -22 -10 -30 -10 -13 0 -13 1 0
10 8 5 22 10 30 10 13 0 13 -1 0 -10z m393 -17 c-7 -2 -21 -2 -30 0 -10 3 -4
5 12 5 17 0 24 -2 18 -5z"/>
<path d="M1710 2420 c0 -11 -4 -20 -8 -20 -5 0 -15 -12 -23 -27 -7 -16 -23
-37 -34 -49 -53 -53 -106 -128 -144 -199 -36 -69 -59 -105 -154 -238 -37 -52
-73 -106 -80 -119 -12 -22 -72 -116 -109 -170 -10 -15 -18 -31 -18 -37 0 -5
-3 -11 -8 -13 -9 -4 -127 -185 -143 -220 -11 -25 -12 -26 -46 -11 -36 15 -117
20 -150 9 -28 -9 -60 -64 -78 -136 -13 -48 -28 -78 -61 -117 -24 -28 -44 -61
-44 -72 0 -12 -4 -21 -10 -21 -5 0 -10 12 -10 28 0 17 17 47 49 86 31 36 53
76 61 105 17 67 29 97 48 117 10 11 32 39 50 63 45 63 259 289 280 296 20 7
92 95 115 141 9 18 21 50 26 72 l9 41 -32 -6 c-17 -3 -32 -10 -34 -15 -2 -4
-11 -8 -21 -8 -9 0 -38 -13 -64 -30 -26 -16 -47 -26 -47 -22 0 4 -4 2 -8 -3
-4 -6 -47 -23 -97 -39 -195 -60 -298 -115 -417 -221 -35 -32 -59 -44 -93 -49
-70 -11 -212 -87 -295 -159 -98 -84 -123 -112 -118 -132 2 -13 16 -5 62 35 32
28 83 70 114 92 53 40 209 128 226 128 4 0 -7 -19 -26 -42 -101 -124 -248
-346 -309 -469 l-69 -135 0 -427 1 -427 153 2 154 2 30 46 c16 25 44 72 62
105 32 59 186 307 319 515 37 58 77 109 89 115 12 5 22 13 22 17 0 13 50 9 51
-4 1 -21 57 105 58 131 1 13 -10 36 -24 53 -14 16 -25 36 -25 45 0 9 9 3 25
-15 14 -17 25 -34 25 -40 0 -6 4 -12 8 -14 12 -4 72 -89 72 -101 0 -6 -11 0
-24 12 -23 22 -31 12 -13 -17 5 -6 4 -12 0 -12 -5 0 -10 -15 -11 -32 -2 -58
-10 -112 -22 -163 -14 -59 -20 -162 -13 -227 7 -59 36 -75 65 -37 10 13 27 35
38 47 11 13 20 30 20 37 0 7 16 25 35 39 19 15 35 33 35 40 0 8 6 19 14 25 8
7 18 26 21 42 4 16 11 29 15 29 5 0 8 6 6 13 -1 6 -1 9 1 5 3 -5 10 -8 17 -8
7 0 21 -9 31 -20 9 -10 22 -18 29 -17 6 1 10 -8 9 -20 -2 -13 2 -23 8 -23 5 0
7 -4 4 -10 -3 -5 -1 -36 5 -69 8 -44 8 -66 -1 -85 -11 -23 -9 -31 9 -56 12
-16 22 -36 22 -45 0 -9 7 -18 15 -21 18 -7 47 14 42 30 -2 6 2 31 10 55 7 24
13 59 13 78 0 18 5 33 11 33 6 0 -3 14 -20 31 -38 38 -41 62 -4 28 43 -38 52
-53 42 -65 -5 -6 -6 -25 -3 -43 5 -25 9 -29 20 -20 11 9 14 5 16 -22 5 -88 17
-149 29 -149 5 0 9 -19 10 -42 1 -33 3 -38 8 -19 6 23 8 22 26 -18 22 -49 28
-42 40 46 6 45 9 51 21 39 8 -8 14 -20 14 -26 0 -7 11 -33 24 -59 13 -25 34
-68 47 -96 23 -47 26 -50 66 -53 46 -3 93 20 93 45 0 9 6 13 13 10 22 -8 35 6
42 47 9 46 -5 43 -36 -8 l-19 -31 0 28 c0 17 -5 27 -14 27 -19 0 -27 14 -37
59 -4 20 -16 61 -27 91 -11 30 -28 85 -38 123 -10 39 -28 79 -42 94 -20 22
-22 30 -13 45 7 11 8 26 2 40 -4 13 -11 64 -15 113 -4 50 -13 115 -21 145
l-14 55 3 -92 c2 -51 2 -93 0 -93 -8 0 -43 78 -65 145 -12 39 -42 100 -66 138
-48 75 -49 79 -28 71 16 -7 40 13 59 51 l14 26 25 -52 25 -53 -4 49 c-2 28 -9
101 -16 163 l-11 113 41 83 c25 49 42 97 42 118 0 19 4 38 9 43 6 6 13 60 16
120 9 170 28 252 90 390 37 81 37 81 5 200 -16 62 -30 116 -30 119 0 3 -4 6
-10 6 -5 0 -10 -9 -10 -20z m-930 -685 c-7 -8 -17 -15 -23 -15 -6 0 -2 7 9 15
25 19 30 19 14 0z m550 -405 c-7 -17 -20 -36 -29 -43 -9 -7 -28 -28 -43 -47
-15 -19 -55 -65 -90 -102 -63 -67 -63 -67 -87 -49 -22 17 -22 19 -8 37 9 10
40 48 68 84 54 68 95 94 133 84 19 -4 25 1 39 37 9 23 20 40 23 36 4 -3 1 -20
-6 -37z m-408 -153 c-6 -6 -15 -39 -21 -72 l-10 -60 4 57 c6 64 13 88 27 88 7
0 7 -4 0 -13z m18 -49 c0 -23 -3 -29 -11 -21 -6 6 -8 20 -4 32 9 30 15 26 15
-11z m-240 -48 c-6 -11 -13 -20 -16 -20 -2 0 0 9 6 20 6 11 13 20 16 20 2 0 0
-9 -6 -20z m-35 -40 c-3 -5 -12 -10 -18 -10 -7 0 -6 4 3 10 19 12 23 12 15 0z
m318 -70 c3 -11 3 -20 1 -20 -2 0 -8 9 -14 20 -6 11 -7 20 -2 20 6 0 12 -9 15
-20z m242 0 c-3 -5 -12 -10 -18 -10 -7 0 -6 4 3 10 19 12 23 12 15 0z m5 -54
c0 -2 -7 -7 -16 -10 -8 -3 -12 -2 -9 4 6 10 25 14 25 6z m-130 -40 c0 -3 -4
-8 -10 -11 -5 -3 -10 -1 -10 4 0 6 5 11 10 11 6 0 10 -2 10 -4z m486 -165 c16
-30 29 -60 30 -66 1 -5 5 -19 9 -30 5 -13 0 -10 -16 9 -13 17 -41 46 -61 66
-38 37 -63 84 -52 101 12 19 63 -26 90 -80z m64 -146 c11 -13 10 -14 -4 -9 -9
3 -16 10 -16 15 0 13 6 11 20 -6z"/>
<path d="M1179 1218 c-61 -64 -86 -98 -72 -98 17 0 154 148 144 155 -6 3 -38
-22 -72 -57z"/>
<path d="M3380 2360 c-9 -6 -10 -10 -3 -10 6 0 15 5 18 10 8 12 4 12 -15 0z"/>
<path d="M5075 2220 c3 -5 8 -10 11 -10 2 0 4 5 4 10 0 6 -5 10 -11 10 -5 0
-7 -4 -4 -10z"/>
<path d="M2594 1508 c-5 -8 -31 -30 -58 -47 -60 -37 -55 -40 12 -6 28 14 55
25 61 25 21 0 11 -16 -18 -31 -76 -37 -136 -72 -139 -80 -2 -5 -9 -9 -16 -9
-22 0 -82 -36 -79 -47 2 -6 -1 -14 -6 -18 -6 -3 -11 1 -11 9 0 20 -9 20 -29 1
-9 -8 -28 -26 -43 -40 -15 -14 -30 -38 -33 -53 -3 -15 -10 -40 -16 -57 -6 -16
-16 -48 -23 -70 -6 -22 -14 -44 -17 -50 -9 -14 -49 -144 -47 -153 1 -4 -4 -20
-11 -37 -7 -16 -14 -41 -17 -55 -2 -14 -12 -53 -23 -87 -13 -43 -16 -63 -8
-63 9 0 9 -2 0 -8 -14 -9 -57 -121 -50 -129 9 -8 27 7 27 22 0 14 27 28 34 17
2 -4 2 -19 -1 -35 -5 -27 -19 -32 -65 -28 -10 1 -18 -3 -18 -8 0 -6 15 -11 33
-11 27 1 67 -3 100 -9 4 0 7 -8 7 -16 0 -8 13 -28 30 -45 51 -52 104 -34 165
56 29 43 33 107 9 142 -20 30 -36 28 -23 -2 18 -39 2 -112 -33 -151 -25 -30
-37 -35 -73 -35 -39 0 -44 3 -59 34 -9 19 -16 47 -16 63 0 61 71 132 135 134
26 0 27 2 10 9 -11 5 -15 9 -10 9 6 1 24 13 41 29 85 75 110 94 143 109 44 19
101 33 98 24 -1 -3 1 -7 6 -8 4 -2 7 0 6 4 -1 10 30 25 41 18 6 -3 10 1 10 9
0 9 5 16 10 16 15 0 12 -14 -9 -36 -10 -11 -21 -41 -25 -66 -4 -29 -26 -78
-56 -128 -50 -84 -81 -153 -43 -98 94 136 122 175 187 256 79 99 133 152 154
152 17 0 15 -47 -2 -53 -8 -3 -20 -22 -27 -41 -7 -20 -19 -36 -26 -36 -7 0
-10 -7 -7 -15 4 -9 -6 -25 -24 -40 -17 -14 -32 -36 -34 -48 -2 -12 -9 -21 -17
-19 -7 1 -11 -3 -9 -10 3 -7 1 -17 -4 -23 -17 -21 -58 -86 -58 -93 0 -4 -20
-29 -45 -56 -25 -26 -45 -55 -45 -63 0 -8 -4 -11 -10 -8 -5 3 -10 -1 -10 -9 0
-9 -3 -16 -7 -16 -5 0 -16 -14 -25 -31 -10 -17 -22 -28 -28 -24 -5 3 -8 0 -5
-7 3 -7 -13 -33 -35 -57 -22 -25 -40 -48 -40 -52 0 -9 -31 -55 -72 -110 -25
-32 -36 -59 -23 -59 2 0 17 5 32 12 30 13 223 201 223 217 0 5 9 13 20 16 11
4 18 10 16 14 -3 4 3 15 12 24 23 22 44 47 38 47 -3 0 15 21 40 46 33 35 43
52 39 68 -4 14 -3 17 2 8 13 -17 76 55 76 86 0 15 2 19 7 12 5 -8 15 1 30 27
13 21 36 53 52 71 15 18 28 38 28 44 0 6 10 20 23 32 13 11 35 37 49 57 15 20
54 64 87 99 l61 63 19 -22 c12 -14 25 -20 32 -15 9 5 10 -1 6 -25 -5 -22 -3
-30 4 -25 7 4 9 -1 4 -15 -3 -11 -2 -21 3 -21 5 0 15 -24 22 -54 15 -62 26
-68 107 -56 52 8 136 5 251 -10 179 -24 203 -14 262 107 42 87 125 321 116
330 -2 3 -7 -6 -11 -19 -15 -50 -78 -216 -101 -265 -24 -52 -33 -60 -48 -46
-4 4 -13 8 -19 8 -7 0 -13 4 -14 8 -1 5 -26 25 -55 46 -29 20 -82 61 -118 90
-188 153 -627 406 -819 472 -61 22 -126 25 -137 7 -5 -8 -10 -6 -14 7 -6 17
-8 17 -16 3z m-244 -262 c0 -3 -4 -8 -10 -11 -5 -3 -10 -1 -10 4 0 6 5 11 10
11 6 0 10 -2 10 -4z m30 -291 c0 -8 -4 -15 -9 -15 -5 0 -11 7 -15 15 -3 9 0
15 9 15 8 0 15 -7 15 -15z m-16 -23 c9 -15 -9 -28 -36 -27 -20 0 -28 5 -28 18
0 12 8 17 29 17 17 0 32 -4 35 -8z m-279 -362 c3 -5 -1 -10 -9 -10 -9 0 -16 5
-16 10 0 6 4 10 9 10 6 0 13 -4 16 -10z m52 -16 c-3 -3 -12 -4 -19 -1 -8 3 -5
6 6 6 11 1 17 -2 13 -5z m-17 -50 c0 -8 -4 -12 -10 -9 -5 3 -10 10 -10 16 0 5
5 9 10 9 6 0 10 -7 10 -16z"/>
<path d="M2130 1340 c0 -5 9 -10 20 -10 30 0 78 -27 84 -47 3 -11 4 -8 3 7 -1
16 -11 29 -27 36 -40 18 -80 25 -80 14z"/>
<path d="M3750 932 c0 -5 8 -12 18 -16 9 -3 23 -9 30 -12 6 -3 12 -1 12 4 0 5
-8 12 -17 16 -10 3 -24 9 -30 12 -7 3 -13 1 -13 -4z"/>
<path d="M2210 560 c0 -5 5 -10 10 -10 6 0 10 5 10 10 0 6 -4 10 -10 10 -5 0
-10 -4 -10 -10z"/>
<path d="M2255 560 c3 -5 11 -10 16 -10 6 0 7 5 4 10 -3 6 -11 10 -16 10 -6 0
-7 -4 -4 -10z"/>
<path d="M2250 512 c-13 -10 -21 -26 -19 -37 4 -17 7 -15 28 13 27 39 23 50
-9 24z"/>
<path d="M1260 495 c0 -8 4 -15 10 -15 5 0 7 7 4 15 -4 8 -8 15 -10 15 -2 0
-4 -7 -4 -15z"/>
<path d="M2190 495 c0 -9 5 -15 11 -13 6 2 11 8 11 13 0 5 -5 11 -11 13 -6 2
-11 -4 -11 -13z"/>
<path d="M1990 430 c0 -5 7 -10 15 -10 8 0 15 5 15 10 0 6 -7 10 -15 10 -8 0
-15 -4 -15 -10z"/>
<path d="M2404 393 c-15 -27 -45 -76 -66 -111 -67 -108 -138 -241 -138 -258 0
-10 40 33 40 43 1 12 72 152 101 198 41 64 101 175 95 175 -3 0 -17 -21 -32
-47z"/>
<path d="M1988 403 c7 -3 16 -2 19 1 4 3 -2 6 -13 5 -11 0 -14 -3 -6 -6z"/>
<path d="M1980 370 c0 -5 5 -10 10 -10 6 0 10 5 10 10 0 6 -4 10 -10 10 -5 0
-10 -4 -10 -10z"/>
<path d="M1934 276 c-8 -22 3 -33 18 -18 9 9 9 15 0 24 -9 9 -13 7 -18 -6z"/>
<path d="M1917 233 c-12 -11 -8 -23 8 -23 8 0 15 7 15 15 0 16 -12 20 -23 8z"/>
<path d="M1900 180 c0 -5 7 -10 16 -10 8 0 12 5 9 10 -3 6 -10 10 -16 10 -5 0
-9 -4 -9 -10z"/>
</g>
</svg>
